<?xml version="1.0" encoding="UTF-8"?>
<svg xmlns="http://www.w3.org/2000/svg" viewBox="0 0 1100 680" width="1100" height="680" font-family="system-ui, -apple-system, 'Segoe UI', Roboto, Helvetica, Arial, sans-serif">
  <defs>
    <linearGradient id="headerGrad" x1="0%" y1="0%" x2="100%" y2="0%">
      <stop offset="0%" stop-color="#4f46e5" />
      <stop offset="100%" stop-color="#7c3aed" />
    </linearGradient>
    <filter id="cardShadow" x="-2%" y="-2%" width="104%" height="106%">
      <feDropShadow dx="0" dy="4" stdDeviation="6" flood-color="#000000" flood-opacity="0.4" />
    </filter>
  </defs>

  <!-- Background Canvas -->
  <rect width="1100" height="680" fill="#0f172a" />

  <!-- App Header Bar -->
  <rect x="30" y="20" width="1040" height="65" rx="14" fill="#1e293b" stroke="#334155" filter="url(#cardShadow)" />
  <circle cx="65" cy="52" r="16" fill="url(#headerGrad)" />
  <text x="65" y="58" fill="#ffffff" font-size="16" font-weight="900" text-anchor="middle">☁</text>
  <text x="95" y="52" fill="#ffffff" font-size="18" font-weight="900">EduCloud</text>
  <text x="95" y="68" fill="#94a3b8" font-size="11">Student Assignment &amp; Feedback Portal</text>
  
  <!-- Right Profile Pill -->
  <rect x="850" y="32" width="200" height="40" rx="20" fill="#334155" />
  <circle cx="875" cy="52" r="12" fill="#10b981" />
  <text x="895" y="48" fill="#ffffff" font-size="12" font-weight="700">Prof. Sarah Johnson</text>
  <text x="895" y="62" fill="#34d399" font-size="10" font-weight="600">ROLE: FACULTY</text>

  <!-- Metric KPI Cards -->
  <!-- Card 1 -->
  <rect x="30" y="105" width="190" height="85" rx="12" fill="#1e293b" stroke="#334155" />
  <text x="50" y="132" fill="#94a3b8" font-size="11" font-weight="700">TOTAL TASKS</text>
  <text x="50" y="168" fill="#ffffff" font-size="28" font-weight="900">15</text>

  <!-- Card 2 -->
  <rect x="242" y="105" width="190" height="85" rx="12" fill="#1e293b" stroke="#334155" />
  <text x="262" y="132" fill="#f59e0b" font-size="11" font-weight="700">PENDING REVIEW</text>
  <text x="262" y="168" fill="#fbbf24" font-size="28" font-weight="900">3</text>

  <!-- Card 3 -->
  <rect x="455" y="105" width="190" height="85" rx="12" fill="#1e293b" stroke="#334155" />
  <text x="475" y="132" fill="#38bdf8" font-size="11" font-weight="700">SUBMITTED</text>
  <text x="475" y="168" fill="#38bdf8" font-size="28" font-weight="900">12</text>

  <!-- Card 4 -->
  <rect x="668" y="105" width="190" height="85" rx="12" fill="#1e293b" stroke="#334155" />
  <text x="688" y="132" fill="#f43f5e" font-size="11" font-weight="700">LATE SUBMISSIONS</text>
  <text x="688" y="168" fill="#fb7185" font-size="28" font-weight="900">2</text>

  <!-- Card 5 -->
  <rect x="880" y="105" width="190" height="85" rx="12" fill="#1e293b" stroke="#334155" />
  <text x="900" y="132" fill="#10b981" font-size="11" font-weight="700">GRADED &amp; REVIEWED</text>
  <text x="900" y="168" fill="#34d399" font-size="28" font-weight="900">9</text>

  <!-- Main Submissions Table Preview -->
  <rect x="30" y="210" width="1040" height="440" rx="14" fill="#1e293b" stroke="#334155" filter="url(#cardShadow)" />
  
  <!-- Table Header -->
  <rect x="30" y="210" width="1040" height="45" rx="14" fill="#243049" />
  <text x="50" y="238" fill="#94a3b8" font-size="11" font-weight="800">STUDENT</text>
  <text x="250" y="238" fill="#94a3b8" font-size="11" font-weight="800">COURSEWORK TITLE</text>
  <text x="510" y="238" fill="#94a3b8" font-size="11" font-weight="800">STATUS</text>
  <text x="630" y="238" fill="#94a3b8" font-size="11" font-weight="800">MARKS</text>
  <text x="730" y="238" fill="#94a3b8" font-size="11" font-weight="800">CLOUD ASSET</text>
  <text x="910" y="238" fill="#94a3b8" font-size="11" font-weight="800">ACTIONS</text>

  <!-- Row 1 (Alex Rivera) -->
  <line x1="30" y1="295" x2="1070" y2="295" stroke="#334155" />
  <text x="50" y="275" fill="#ffffff" font-size="13" font-weight="700">Alex Rivera</text>
  <text x="50" y="290" fill="#64748b" font-size="10">alex@cloudportal.edu</text>
  <text x="250" y="280" fill="#e2e8f0" font-size="13">Distributed Storage Engine</text>
  <rect x="510" y="265" width="85" height="22" rx="6" fill="#064e3b" />
  <text x="552" y="280" fill="#34d399" font-size="10" font-weight="800" text-anchor="middle">GRADED</text>
  <text x="630" y="280" fill="#38bdf8" font-size="13" font-weight="800">94.5 / 100</text>
  <!-- Buttons -->
  <rect x="730" y="266" width="65" height="22" rx="6" fill="#312e81" />
  <text x="762" y="281" fill="#c7d2fe" font-size="10" font-weight="700" text-anchor="middle">👁 Preview</text>
  <rect x="910" y="264" width="75" height="25" rx="6" fill="#581c87" />
  <text x="947" y="280" fill="#e9d5ff" font-size="10" font-weight="800" text-anchor="middle">✨ Scan</text>
  <rect x="995" y="264" width="65" height="25" rx="6" fill="#4338ca" />
  <text x="1027" y="280" fill="#ffffff" font-size="10" font-weight="800" text-anchor="middle">✏ Grade</text>

  <!-- Row 2 (Emily Chen - Late) -->
  <line x1="30" y1="355" x2="1070" y2="355" stroke="#334155" />
  <text x="50" y="335" fill="#ffffff" font-size="13" font-weight="700">Emily Chen</text>
  <text x="50" y="350" fill="#64748b" font-size="10">emily@cloudportal.edu</text>
  <text x="250" y="340" fill="#e2e8f0" font-size="13">Docker Compose Multi-Tier Lab</text>
  <rect x="510" y="325" width="65" height="22" rx="6" fill="#881337" />
  <text x="542" y="340" fill="#fda4af" font-size="10" font-weight="800" text-anchor="middle">LATE</text>
  <text x="630" y="340" fill="#94a3b8" font-size="12">Pending</text>
  <rect x="730" y="326" width="65" height="22" rx="6" fill="#312e81" />
  <text x="762" y="341" fill="#c7d2fe" font-size="10" font-weight="700" text-anchor="middle">👁 Preview</text>
  <rect x="910" y="324" width="75" height="25" rx="6" fill="#581c87" />
  <text x="947" y="340" fill="#e9d5ff" font-size="10" font-weight="800" text-anchor="middle">✨ Scan</text>
  <rect x="995" y="324" width="65" height="25" rx="6" fill="#4338ca" />
  <text x="1027" y="340" fill="#ffffff" font-size="10" font-weight="800" text-anchor="middle">✏ Grade</text>

  <!-- Row 3 (Jordan Lee - Submitted) -->
  <line x1="30" y1="415" x2="1070" y2="415" stroke="#334155" />
  <text x="50" y="395" fill="#ffffff" font-size="13" font-weight="700">Jordan Lee</text>
  <text x="50" y="410" fill="#64748b" font-size="10">jordan@cloudportal.edu</text>
  <text x="250" y="400" fill="#e2e8f0" font-size="13">FastAPI JWT Microservices</text>
  <rect x="510" y="385" width="85" height="22" rx="6" fill="#14532d" />
  <text x="552" y="400" fill="#86efac" font-size="10" font-weight="800" text-anchor="middle">SUBMITTED</text>
  <text x="630" y="400" fill="#94a3b8" font-size="12">Pending</text>
  <rect x="730" y="386" width="65" height="22" rx="6" fill="#312e81" />
  <text x="762" y="401" fill="#c7d2fe" font-size="10" font-weight="700" text-anchor="middle">👁 Preview</text>
  <rect x="910" y="384" width="75" height="25" rx="6" fill="#581c87" />
  <text x="947" y="400" fill="#e9d5ff" font-size="10" font-weight="800" text-anchor="middle">✨ Scan</text>
  <rect x="995" y="384" width="65" height="25" rx="6" fill="#4338ca" />
  <text x="1027" y="400" fill="#ffffff" font-size="10" font-weight="800" text-anchor="middle">✏ Grade</text>

  <!-- Bottom Action Callout -->
  <rect x="50" y="460" width="980" height="150" rx="12" fill="#0f172a" stroke="#334155" />
  <text x="80" y="495" fill="#38bdf8" font-size="14" font-weight="800">🔍 Cloud Feedback &amp; Verification Vault</text>
  <text x="80" y="520" fill="#cbd5e1" font-size="12">"Deducted 5% for late submission penalty according to course policy. Docker Compose setup works well."</text>
  <text x="80" y="545" fill="#94a3b8" font-size="11">Authenticated Object URL: <tspan fill="#a5b4fc">assignments/d2a3f890/1f9693eb/docker_compose_lab.pdf</tspan></text>
  <rect x="80" y="565" width="220" height="30" rx="8" fill="#10b981" />
  <text x="190" y="585" fill="#ffffff" font-size="11" font-weight="800" text-anchor="middle">✔ Export Grades to CSV</text>
</svg>
